<?xml version="1.0" encoding="UTF-8"?><svg id="a" xmlns="http://www.w3.org/2000/svg" viewBox="0 0 283.465 283.465"><path d="M6.848,158.266l118.351,118.351c.013.013.027.025.041.039.26.259.525.511.797.757.137.125.279.242.419.363.148.128.295.259.446.383.179.147.361.286.543.427.117.091.232.183.351.272.201.149.405.291.609.433.106.074.211.15.319.222.21.141.424.275.638.409.108.068.216.137.325.203.211.127.424.247.638.367.121.068.24.136.362.202.202.108.405.21.609.312.141.071.282.142.425.21.186.088.374.171.561.254.167.074.333.148.501.218.167.069.335.134.504.199.193.075.385.149.58.219.149.053.299.102.448.152.216.072.433.144.651.21.133.04.267.076.4.114.235.066.47.132.708.191.126.031.252.058.378.087.244.056.488.112.735.161.131.026.262.047.393.07.241.043.482.087.726.123.153.023.306.039.46.058.222.028.443.058.666.08.21.021.421.033.631.048.169.012.336.028.506.036.773.038,1.548.038,2.322,0,.161-.008.321-.023.481-.034.22-.015.44-.029.659-.05.214-.021.425-.05.636-.076.164-.021.327-.038.491-.062.233-.034.464-.076.695-.117.142-.025.285-.048.427-.076.235-.046.468-.1.7-.153.138-.032.277-.061.415-.096.226-.056.449-.119.673-.181.146-.041.292-.08.437-.124.207-.063.411-.131.616-.199.162-.054.323-.106.484-.164.183-.065.363-.135.543-.205.181-.07.362-.139.542-.214.156-.065.31-.134.464-.202.2-.088.399-.176.597-.27.131-.062.26-.128.39-.193.216-.107.431-.216.644-.33.11-.059.218-.121.326-.182.225-.126.45-.252.672-.386.098-.059.194-.121.291-.182.225-.14.45-.282.671-.43.096-.065.19-.133.285-.199.215-.149.43-.299.641-.456.108-.08.212-.165.318-.247.192-.148.385-.296.574-.451.141-.116.278-.238.416-.358.149-.129.3-.254.447-.387.27-.245.534-.496.793-.754.014-.014.029-.027.043-.041l118.352-118.351c9.131-9.131,9.131-23.935,0-33.066-4.566-4.566-10.548-6.848-16.533-6.848s-11.968,2.283-16.533,6.848l-78.438,78.438V23.381c0-12.913-10.468-23.381-23.381-23.381s-23.381,10.468-23.381,23.381v180.257S39.914,125.2,39.914,125.2c-4.566-4.566-10.548-6.848-16.533-6.848-5.983,0-11.968,2.283-16.533,6.848-9.131,9.131-9.131,23.935,0,33.066Z"/></svg>