<?xml version="1.0" encoding="UTF-8"?><svg id="a" xmlns="http://www.w3.org/2000/svg" viewBox="0 0 283.465 283.465"><path d="M141.732,20c32.516,0,63.086,12.662,86.078,35.655,22.992,22.992,35.655,53.562,35.655,86.078s-12.662,63.085-35.655,86.078c-22.992,22.992-53.562,35.655-86.078,35.655s-63.086-12.662-86.078-35.655c-22.992-22.992-35.655-53.562-35.655-86.078s12.662-63.086,35.655-86.078c22.992-22.992,53.562-35.655,86.078-35.655M141.732,0C63.456,0,0,63.456,0,141.732s63.456,141.732,141.732,141.732,141.732-63.456,141.732-141.732S220.009,0,141.732,0h0Z"/><path d="M138.215,110.412c0,5.853-5.333,12.12-12.247,12.12v98.805c0,14.025-19.117,14.025-19.117,0v-98.805c-6.734,0-12.594-5.185-12.594-12.955v-54.373c0-4.733,6.841-4.916,6.841.183v40.195h5.726v-40.561c0-4.35,6.585-4.63,6.585.183v40.378h5.917v-40.513c0-4.542,6.394-4.725,6.394.183v40.331h5.821v-40.513c0-4.494,6.679-4.677,6.679.183l-.003,55.16Z"/><path d="M189.209,67.842v153.447c0,13.717-19.154,13.514-19.154,0v-60.884h-10.199v-92.563c0-21.547,29.354-21.547,29.354,0Z"/></svg>