<?xml version="1.0" encoding="UTF-8"?><svg id="a" xmlns="http://www.w3.org/2000/svg" viewBox="0 0 283.465 283.465"><path d="M125.199,6.848L6.847,125.199c-.013.013-.025.027-.039.041-.259.26-.511.525-.757.797-.125.137-.242.279-.363.419-.128.148-.259.295-.383.446-.147.179-.286.361-.427.543-.091.117-.183.232-.272.351-.149.201-.291.405-.433.609-.074.106-.15.211-.222.319-.141.21-.275.424-.409.638-.068.108-.137.216-.203.325-.127.211-.247.424-.367.638-.068.121-.136.24-.202.362-.108.202-.21.405-.312.609-.071.141-.142.282-.21.425-.088.186-.171.374-.254.561-.074.167-.148.333-.218.501-.069.167-.134.335-.199.504-.075.193-.149.385-.219.58-.053.149-.102.299-.152.448-.072.216-.144.433-.21.651-.04.133-.076.267-.114.4-.066.235-.132.47-.191.708-.031.126-.058.252-.087.378-.056.244-.112.488-.161.735-.026.131-.047.262-.07.393-.043.241-.087.482-.123.726-.023.153-.039.306-.058.46-.028.222-.058.443-.08.666-.021.21-.033.421-.048.631-.012.169-.028.336-.036.506-.038.773-.038,1.548,0,2.322.008.161.023.321.034.481.015.22.029.44.05.659.021.214.05.425.076.636.021.164.038.327.062.491.034.233.076.464.117.695.025.142.048.285.076.427.046.235.1.468.153.7.032.138.061.277.096.415.056.226.119.449.181.673.041.146.08.292.124.437.063.207.131.411.199.616.054.162.106.323.164.484.065.183.135.363.205.543.07.181.139.362.214.542.065.156.134.31.202.464.088.2.176.399.27.597.062.131.128.26.193.39.107.216.216.431.33.644.059.11.121.218.182.326.126.225.252.45.386.672.059.098.121.194.182.291.14.225.282.45.43.671.065.096.133.19.199.285.149.215.299.43.456.641.08.108.165.212.247.318.148.192.296.385.451.574.116.141.238.278.358.416.129.149.254.3.387.447.245.27.496.534.754.793.014.014.027.029.041.043l118.351,118.352c9.131,9.131,23.935,9.131,33.066,0,4.566-4.566,6.848-10.548,6.848-16.533s-2.283-11.968-6.848-16.533l-78.438-78.438h180.257c12.913,0,23.381-10.468,23.381-23.381s-10.468-23.381-23.381-23.381H79.827l78.438-78.437c4.566-4.566,6.848-10.548,6.848-16.533s-2.283-11.968-6.848-16.533c-9.131-9.131-23.935-9.131-33.066,0Z"/></svg>