<?xml version="1.0" encoding="UTF-8"?><svg id="a" xmlns="http://www.w3.org/2000/svg" viewBox="0 0 283.465 283.465"><path d="M141.732,20c32.516,0,63.086,12.662,86.078,35.655,22.992,22.992,35.655,53.562,35.655,86.078s-12.662,63.085-35.655,86.078c-22.992,22.992-53.562,35.655-86.078,35.655s-63.086-12.662-86.078-35.655c-22.992-22.992-35.655-53.562-35.655-86.078s12.662-63.086,35.655-86.078c22.992-22.992,53.562-35.655,86.078-35.655M141.732,0C63.456,0,0,63.456,0,141.732s63.456,141.732,141.732,141.732,141.732-63.456,141.732-141.732S220.009,0,141.732,0h0Z"/><path d="M181.551,54.485h-79.638c-18.425,0-35.549,14.937-35.549,33.362v89.602c0,8.868,3.466,16.921,9.11,22.897v19.154c0,3.62,2.935,6.555,6.555,6.555h14.97c3.62,0,6.555-2.935,6.555-6.555v-8.689h75.522v8.689c0,3.62,2.935,6.555,6.555,6.555h14.97c3.62,0,6.555-2.935,6.555-6.555v-18.295c6.137-6.05,9.945-14.457,9.945-23.756v-89.602c0-18.425-17.124-33.362-35.549-33.362ZM97.809,191.785c-6.514,0-11.795-5.281-11.795-11.795s5.281-11.795,11.795-11.795,11.795,5.281,11.795,11.795-5.281,11.795-11.795,11.795ZM185.701,191.785c-6.514,0-11.795-5.281-11.795-11.795s5.281-11.795,11.795-11.795,11.795,5.281,11.795,11.795-5.281,11.795-11.795,11.795ZM203.89,146.121h-124.315v-54.079h124.315v54.079Z"/></svg>