<?xml version="1.0" encoding="UTF-8"?><svg id="a" xmlns="http://www.w3.org/2000/svg" viewBox="0 0 283.465 283.465"><polygon points="87.595 93.586 32.001 93.586 4.203 141.732 32.001 189.879 87.595 189.879 115.393 141.732 87.595 93.586" fill="red"/><path d="M37.164,131.13c1.153,0,2.206.103,3.156.306.95.204,1.765.538,2.443,1.001.679.464,1.204,1.081,1.578,1.85.373.77.56,1.72.56,2.851,0,1.222-.277,2.24-.831,3.055-.555.814-1.375,1.481-2.461,2.002,1.493.43,2.607,1.183,3.343,2.257s1.103,2.37,1.103,3.886c0,1.222-.237,2.279-.712,3.173-.476.894-1.115,1.623-1.918,2.188-.803.566-1.72.984-2.748,1.256-1.03.271-2.088.407-3.174.407h-11.741v-24.23h11.402ZM36.485,140.937c.95,0,1.73-.226,2.342-.679.61-.452.916-1.188.916-2.206,0-.564-.102-1.029-.306-1.391-.203-.362-.475-.646-.814-.849-.339-.204-.729-.345-1.171-.425-.441-.078-.899-.118-1.374-.118h-4.988v5.667h5.396ZM36.791,151.22c.52,0,1.018-.051,1.493-.152.475-.102.894-.271,1.255-.509.362-.237.65-.561.866-.968.214-.407.322-.927.322-1.561,0-1.244-.352-2.132-1.053-2.664-.701-.531-1.629-.798-2.782-.798h-5.803v6.651h5.701Z" fill="#fff"/><path d="M68.317,153.511c-1.833,1.595-4.367,2.393-7.602,2.393-3.281,0-5.82-.792-7.619-2.376-1.799-1.583-2.697-4.026-2.697-7.33v-15.067h5.327v15.067c0,.657.057,1.302.17,1.935.113.634.351,1.193.713,1.68.361.487.865.883,1.51,1.188.645.305,1.511.458,2.597.458,1.9,0,3.212-.425,3.937-1.272.724-.849,1.086-2.178,1.086-3.988v-15.067h5.327v15.067c0,3.281-.916,5.719-2.748,7.313Z" fill="#fff"/><path d="M80.567,149.388c.294.565.684,1.023,1.171,1.374.486.352,1.057.611,1.714.781.655.169,1.334.254,2.036.254.475,0,.983-.039,1.526-.118s1.053-.232,1.527-.459c.476-.226.871-.537,1.188-.933.317-.396.476-.899.476-1.511,0-.655-.21-1.188-.628-1.595-.419-.407-.967-.746-1.646-1.018s-1.448-.51-2.308-.713c-.86-.204-1.731-.43-2.613-.679-.905-.226-1.788-.503-2.647-.831s-1.629-.752-2.308-1.273c-.679-.52-1.228-1.17-1.646-1.951-.419-.78-.628-1.725-.628-2.833,0-1.244.266-2.325.798-3.241.531-.916,1.227-1.68,2.087-2.291.859-.61,1.832-1.062,2.918-1.357,1.086-.293,2.172-.44,3.258-.44,1.267,0,2.483.142,3.648.424,1.165.283,2.2.741,3.105,1.374.904.634,1.623,1.442,2.154,2.427s.798,2.178.798,3.58h-5.158c-.046-.724-.198-1.323-.458-1.799-.261-.475-.605-.848-1.035-1.119s-.922-.464-1.477-.577-1.159-.17-1.815-.17c-.43,0-.86.046-1.289.136-.431.091-.82.249-1.171.476-.352.226-.64.509-.865.848-.227.34-.34.77-.34,1.29,0,.475.09.86.271,1.153.181.295.537.566,1.069.814.531.25,1.267.498,2.205.747.939.249,2.166.565,3.683.95.452.091,1.08.255,1.883.492.804.237,1.601.616,2.393,1.137s1.477,1.216,2.054,2.087.865,1.985.865,3.343c0,1.108-.216,2.138-.645,3.088-.431.95-1.069,1.771-1.918,2.461-.848.69-1.9,1.228-3.156,1.611-1.255.385-2.709.577-4.36.577-1.335,0-2.63-.164-3.886-.492-1.256-.327-2.364-.843-3.325-1.544-.962-.701-1.726-1.595-2.291-2.681s-.837-2.376-.814-3.869h5.158c0,.814.146,1.505.441,2.07Z" fill="#fff"/><path d="M193.687,165.798h-11.577v21.352h-13.891v-21.352h-38.588v-14.535l38.588-54.15h13.891v57.109h11.577v11.576ZM140.951,154.222h27.269v-39.616h-.258l-27.011,39.616Z"/><path d="M230.601,134.413c2.4.087,4.802-.084,7.203-.515,2.399-.428,4.544-1.178,6.432-2.251,1.885-1.071,3.408-2.55,4.565-4.438,1.158-1.885,1.737-4.2,1.737-6.945,0-3.858-1.309-6.946-3.924-9.261-2.616-2.315-5.98-3.474-10.097-3.474-2.572,0-4.804.515-6.688,1.544-1.887,1.029-3.453,2.424-4.694,4.181-1.244,1.758-2.167,3.729-2.766,5.916-.602,2.187-.858,4.438-.772,6.753h-14.663c.171-4.373.985-8.425,2.444-12.155,1.457-3.729,3.45-6.966,5.98-9.711,2.528-2.743,5.596-4.888,9.197-6.431,3.602-1.544,7.673-2.315,12.219-2.315,3.516,0,6.966.515,10.354,1.543,3.387,1.029,6.432,2.53,9.133,4.502,2.701,1.974,4.865,4.482,6.495,7.524,1.628,3.045,2.444,6.54,2.444,10.483,0,4.546-1.029,8.512-3.087,11.897-2.059,3.389-5.274,5.853-9.647,7.396v.257c5.146,1.029,9.152,3.581,12.026,7.653,2.872,4.074,4.31,9.025,4.31,14.856,0,4.288-.858,8.125-2.573,11.512-1.716,3.389-4.031,6.261-6.945,8.618-2.916,2.359-6.303,4.18-10.161,5.466-3.859,1.286-7.933,1.93-12.22,1.93-5.231,0-9.798-.752-13.698-2.251-3.903-1.499-7.161-3.621-9.775-6.367-2.617-2.743-4.61-6.045-5.981-9.904-1.372-3.858-2.103-8.146-2.187-12.862h14.663c-.173,5.489,1.178,10.055,4.052,13.699,2.872,3.646,7.181,5.466,12.927,5.466,4.888,0,8.981-1.393,12.284-4.18,3.3-2.786,4.952-6.753,4.952-11.898,0-3.515-.688-6.302-2.059-8.36-1.372-2.058-3.173-3.621-5.402-4.694-2.23-1.071-4.739-1.736-7.524-1.994-2.787-.257-5.64-.342-8.554-.257v-10.934Z"/></svg>