<?xml version="1.0" encoding="UTF-8"?><svg id="a" xmlns="http://www.w3.org/2000/svg" viewBox="0 0 283.465 283.465"><path d="M141.732,20c32.516,0,63.086,12.662,86.078,35.655,22.992,22.992,35.655,53.562,35.655,86.078s-12.662,63.086-35.655,86.078c-22.992,22.992-53.562,35.655-86.078,35.655s-63.086-12.662-86.078-35.655c-22.992-22.992-35.655-53.562-35.655-86.078s12.662-63.085,35.655-86.078c22.992-22.992,53.562-35.655,86.078-35.655M141.732,0C63.456,0,0,63.456,0,141.732s63.456,141.732,141.732,141.732,141.732-63.456,141.732-141.732S220.009,0,141.732,0h0Z"/><path d="M182.833,207.224v21.307h-80.459v-21.307h28.384v-78.977h-28.384v-21.423h52.355v100.399h28.104Z"/><circle cx="141.732" cy="66.613" r="18.921"/></svg>