<?xml version="1.0" encoding="UTF-8"?><svg id="a" xmlns="http://www.w3.org/2000/svg" viewBox="0 0 283.465 283.465"><path d="M256.09,259.086H27.38C12.283,259.086,0,246.806,0,231.712,0,226.411,1.155,222.105,3.744,217.76L117.868,20.093c4.885-8.548,14.037-13.882,23.864-13.882,9.97,0,18.9,5.201,23.887,13.914l114.098,197.631c2.591,4.346,3.747,8.654,3.747,13.956,0,15.095-12.28,27.375-27.375,27.375ZM255.893,239.033h.197c4.106,0,7.321-3.216,7.321-7.321,0-1.831-.245-2.564-.935-3.714-.029-.049-.058-.098-.086-.147L148.234,30.119c-1.388-2.426-3.812-3.855-6.502-3.855s-5.11,1.427-6.475,3.817L21.075,227.851c-.028.049-.057.098-.086.147-.69,1.15-.935,1.883-.935,3.714,0,4.106,3.218,7.321,7.326,7.321h228.514Z" fill="#9d9d9c"/><path d="M164.224,165.624s8.065,21.638,8.277,21.85c.212.848.636,1.485,1.272,1.909l23.128,18.669c.848.636,1.272,1.484,1.485,2.333-.212,0,0,1.484,0,1.484,0,3.393-1.485,6.58-3.823,8.913-.424,0-.424.424-.424.848s.424,1.06,1.06,1.06h3.187c2.545,0,5.09-1.484,6.362-3.817l7.853-13.155c0-.424.212-.636.212-1.061,0-.636-.424-1.272-1.06-1.697l-4.672-2.121-16.124-18.669c-.636-.636-1.485-1.06-2.545-1.06-.424,0-.848.212-1.485.424-1.06-1.278-1.485-2.339-1.697-3.823l-7.853-32.242,2.333-1.49c1.06.636,2.121,1.066,3.399,1.066.636,0,1.06,0,1.697-.43,1.485-.848,2.121-1.485,2.969-2.969.424-.212.424-.848.424-1.272v-.212c-.212-1.272-1.06-2.545-2.121-3.181-1.272-.848-2.121-2.121-2.333-3.817,0-5.726-1.272-11.882-3.611-17.184-.848-2.333-2.545-4.03-4.666-5.302-6.368-2.975-13.155-4.459-20.159-4.459h-3.181c-1.909,0-3.393.636-5.09,1.703l-7.853,5.302c-.212.212-.636.212-.848.212-.848,0-1.697-.636-1.697-1.485,0-.424.212-.636.212-1.06,0-5.096-2.969-9.761-7.429-12.094-1.485-1.06-2.969-1.484-4.666-1.484s-2.757.212-4.242,1.06c-2.121.848-4.035,2.545-5.308,4.454-1.06,1.484-1.485,3.181-1.485,5.096,0,4.878,4.029,9.543,8.701,11.24l5.09.848c.848,0,1.697.636,1.697,1.697,0,.424-.424.848-.636,1.272l-5.514,5.308c-.212.636-.424,1.06-.424,1.697v1.485c0,5.938.848,12.3,2.333,18.032.212.848.424,1.484.424,2.121,0,1.06-.212,1.909-.636,2.969l-7.429,17.82c-.212.636-.424,1.485-.424,2.121,0,.848.212,1.697.636,2.333l-8.907,5.732c-.636-1.484-1.272-2.339-2.333-3.187l-1.278-.636-5.726-1.697c-1.06-.424-2.121-1.272-2.757-2.333l-4.247-6.574c0-.212-.212-.424-.424-.636l-2.969-1.06-6.362-.848h-.636c-1.909,0-3.823,1.06-4.884,2.969l-31.399,54.097h72.348c.642,0,1.066-.636,1.066-1.272,0,0,0-.212-9.337-33.52l10.186-6.362c.424.424,1.06.424,1.697.424s1.06,0,1.485-.212l4.454-2.127c1.06-.636,1.697-1.484,1.697-2.757,0-.424-.212-.636-.212-1.06l11.67-7.211-1.697,4.242c-1.485,3.817-2.333,7.847-2.333,11.882l-1.485,28.424-.424,2.757c0,.212-.212.424-.424.424l-8.913,2.551c-.848.212-1.485,1.06-1.485,1.909,0,1.061.848,1.909,1.909,1.909h21.007c1.272,0,2.121-.848,2.333-2.121,1.272-10.186,2.545-20.365,4.029-30.763,0-.212,0-.424-.212-.636l-.636-.212c-.424,0-.636-.424-.636-1.061v-2.757c0-.636,0-1.06.424-1.485,6.58-7.853,7.004-8.489,11.034-17.82,0-.212.212-.424.424-.424s.424.212.636.212M170.592,118.949c.424,0,.848.212,1.06.848l5.514,19.729-1.909,1.272-13.155-20.789c-.636-.424-.212-1.485.636-1.485l7.853.424ZM146.616,152.045c-3.611-5.09-4.672-6.362-9.762-9.761-.424-.424-1.272-.212-1.272.424.212,1.697.424,3.399.424,5.096,0,5.09-.424,7.423-2.333,12.088l-5.096,8.701c-.424.424.212,1.272.848.848l14.215-8.913,3.187-6.998c.212-.636.212-1.06-.212-1.485" fill="#9d9d9c" fill-rule="evenodd"/></svg>