<?xml version="1.0" encoding="UTF-8"?><svg id="a" xmlns="http://www.w3.org/2000/svg" viewBox="0 0 283.465 283.465"><path d="M141.732,20c32.516,0,63.086,12.662,86.078,35.655,22.992,22.992,35.655,53.562,35.655,86.078s-12.662,63.085-35.655,86.078c-22.992,22.992-53.562,35.655-86.078,35.655s-63.086-12.662-86.078-35.655c-22.992-22.992-35.655-53.562-35.655-86.078s12.662-63.086,35.655-86.078c22.992-22.992,53.562-35.655,86.078-35.655M141.732,0C63.456,0,0,63.456,0,141.732s63.456,141.732,141.732,141.732,141.732-63.456,141.732-141.732S220.009,0,141.732,0h0Z"/><polygon points="159.677 210.831 176.87 228.979 200.917 228.979 183.724 210.831 159.677 210.831"/><polygon points="82.548 228.979 106.594 228.979 123.787 210.831 99.741 210.831 82.548 228.979"/><path d="M181.551,54.485h-79.638c-18.425,0-35.55,14.937-35.55,33.362v89.603c0,18.425,14.937,33.362,33.362,33.362h84.013c18.425,0,33.362-14.936,33.362-33.362v-89.603c0-18.425-17.124-33.362-35.55-33.362ZM97.723,191.776c-6.515,0-11.796-5.281-11.796-11.796s5.281-11.796,11.796-11.796,11.796,5.281,11.796,11.796-5.281,11.796-11.796,11.796ZM185.741,191.776c-6.515,0-11.796-5.281-11.796-11.796s5.281-11.796,11.796-11.796,11.796,5.281,11.796,11.796-5.281,11.796-11.796,11.796ZM203.89,154.199h-124.315v-62.157h124.315v62.157Z"/></svg>