<?xml version="1.0" encoding="UTF-8"?>
<svg id="a" data-name="Layer 1" xmlns="http://www.w3.org/2000/svg" width="44cm" height="40cm" viewBox="0 0 1247.244 1133.858">
  <polygon points="1187.965 563.915 1187.965 212.335 973.807 212.335 973.807 338.995 1034.694 338.995 1034.694 407.625 973.807 407.625 973.807 806.012 1187.965 806.012 1187.965 663.766 1244.46 663.766 1244.46 563.915 1187.965 563.915" fill="#d0d0d0"/>
  <path d="M218.602,833.631v-100.421h25.951v-38.976h122.808v-77.817h-148.759v-95.026h25.951v-38.976h121.069v-77.594l-258.196.191v-74.571l.023-.191v-112.928h112.928v-104.665H2.784v217.592h74.924v152.165h57.174v351.215h-61.258v77.594h136.81v216.446h345.089v-294.04H218.602ZM477.158,1052.646h-190.735v-141.423h147.405v77.746h43.33v63.676Z" fill="#d0d0d0"/>
  <rect x="452.959" y="616.418" width="36.314" height="77.817" fill="#d0d0d0"/>
  <rect x="496.595" y="616.418" width="36.314" height="77.817" fill="#d0d0d0"/>
  <polygon points="520.599 89.247 520.599 54.818 243.788 54.818 243.788 156.728 456.562 156.728 456.562 191.157 621.132 191.157 621.132 89.247 520.599 89.247" fill="#d0d0d0"/>
  <polygon points="1100.511 155.705 1100.511 6.187 694.677 6.187 694.677 152.508 694.675 152.508 694.675 280.093 508.722 280.093 508.722 433.381 760.012 433.381 760.012 483.639 793.937 483.639 793.937 433.381 945.967 433.381 945.967 280.093 723.575 280.093 723.575 155.705 1100.511 155.705" fill="#d0d0d0"/>
</svg>