<?xml version="1.0" encoding="UTF-8"?><svg id="a" xmlns="http://www.w3.org/2000/svg" viewBox="0 0 283.465 283.465"><rect x="4.203" y="93.585" width="96.294" height="96.294" fill="#0096ff"/><path d="M70.639,166.266c-4.419,3.846-10.528,5.769-18.329,5.769-7.91,0-14.032-1.909-18.369-5.729-4.337-3.817-6.505-9.708-6.505-17.674v-36.329h12.847v36.329c0,1.583.135,3.138.408,4.664.272,1.528.846,2.878,1.719,4.051.872,1.174,2.087,2.127,3.642,2.863,1.554.736,3.641,1.104,6.259,1.104,4.582,0,7.745-1.022,9.492-3.068,1.745-2.045,2.618-5.249,2.618-9.614v-36.329h12.846v36.329c0,7.91-2.209,13.788-6.627,17.634Z" fill="#fff"/><path d="M128.419,98.107h15.264v50.796c0,2.931.142,5.903.428,8.914.284,3.013,1.099,5.72,2.441,8.12,1.344,2.401,3.377,4.376,6.105,5.922,2.727,1.547,6.573,2.32,11.539,2.32s8.811-.773,11.539-2.32c2.727-1.546,4.763-3.521,6.105-5.922,1.343-2.4,2.156-5.107,2.442-8.12.284-3.011.427-5.983.427-8.914v-50.796h15.264v55.803c0,5.616-.854,10.501-2.564,14.652-1.709,4.151-4.133,7.632-7.266,10.44-3.134,2.808-6.898,4.905-11.294,6.288-4.396,1.383-9.28,2.076-14.653,2.076s-10.257-.693-14.652-2.076c-4.396-1.383-8.162-3.48-11.295-6.288-3.135-2.809-5.556-6.289-7.266-10.44-1.709-4.151-2.564-9.036-2.564-14.652v-55.803Z"/><path d="M226.346,99.816h44.203v12.455h-33.823l-4.396,21.735.244.244c1.872-2.116,4.253-3.725,7.144-4.823,2.889-1.1,5.758-1.648,8.608-1.648,4.231,0,8.018.713,11.355,2.137,3.337,1.425,6.146,3.419,8.426,5.983,2.278,2.563,4.009,5.598,5.189,9.097,1.179,3.501,1.771,7.286,1.771,11.355,0,3.419-.55,6.941-1.648,10.562-1.099,3.623-2.851,6.92-5.25,9.891-2.402,2.973-5.477,5.415-9.22,7.326-3.745,1.912-8.223,2.87-13.432,2.87-4.151,0-7.998-.55-11.539-1.648-3.541-1.1-6.654-2.748-9.341-4.945-2.687-2.198-4.823-4.903-6.41-8.12-1.588-3.215-2.464-6.979-2.626-11.295h13.92c.407,4.64,1.994,8.202,4.763,10.684,2.767,2.484,6.43,3.725,10.989,3.725,2.931,0,5.413-.488,7.448-1.465,2.034-.978,3.683-2.32,4.945-4.03,1.262-1.709,2.156-3.703,2.687-5.982.528-2.278.794-4.721.794-7.327,0-2.359-.326-4.618-.977-6.776-.653-2.156-1.63-4.049-2.931-5.678-1.304-1.628-2.992-2.931-5.067-3.907-2.076-.978-4.499-1.466-7.266-1.466-2.931,0-5.678.55-8.242,1.648s-4.417,3.155-5.556,6.166h-13.92l9.157-46.767Z"/></svg>