<?xml version="1.0" encoding="UTF-8"?><svg id="a" xmlns="http://www.w3.org/2000/svg" viewBox="0 0 283.465 283.465"><path d="M141.732,20c32.516,0,63.086,12.662,86.078,35.655,22.992,22.992,35.655,53.562,35.655,86.078s-12.662,63.085-35.655,86.078c-22.992,22.992-53.562,35.655-86.078,35.655s-63.086-12.662-86.078-35.655c-22.992-22.992-35.655-53.562-35.655-86.078s12.662-63.086,35.655-86.078c22.992-22.992,53.562-35.655,86.078-35.655M141.732,0C63.456,0,0,63.456,0,141.732s63.456,141.732,141.732,141.732,141.732-63.456,141.732-141.732S220.009,0,141.732,0h0Z"/><rect y="66.495" width="283.465" height="133.422" fill="none"/><path d="M114.289,180.341l-13.311-53.46h-.22l-13.09,53.46h-17.49l-20.79-78.54h17.271l12.43,53.46h.22l13.641-53.46h16.17l13.42,54.12h.22l12.87-54.12h16.939l-21.119,78.54h-17.16Z"/><path d="M210.867,122.756c-1.027-1.65-2.31-3.097-3.85-4.345-1.54-1.246-3.283-2.217-5.226-2.915-1.943-.696-3.979-1.045-6.104-1.045-3.888,0-7.188.753-9.9,2.255-2.714,1.504-4.914,3.52-6.6,6.05-1.688,2.53-2.915,5.409-3.686,8.635-.77,3.228-1.154,6.564-1.154,10.01,0,3.299.385,6.508,1.154,9.625.771,3.118,1.997,5.923,3.686,8.415,1.686,2.494,3.886,4.493,6.6,5.995,2.712,1.504,6.013,2.255,9.9,2.255,5.279,0,9.404-1.612,12.375-4.84,2.97-3.227,4.785-7.48,5.444-12.76h16.721c-.44,4.914-1.578,9.35-3.41,13.31-1.834,3.96-4.254,7.334-7.26,10.12-3.008,2.788-6.528,4.914-10.561,6.38-4.034,1.466-8.47,2.2-13.31,2.2-6.015,0-11.423-1.045-16.226-3.135-4.804-2.09-8.854-4.968-12.154-8.635-3.301-3.667-5.83-7.976-7.591-12.926-1.76-4.949-2.64-10.285-2.64-16.004,0-5.866.88-11.311,2.64-16.335,1.761-5.022,4.29-9.405,7.591-13.145,3.3-3.74,7.351-6.672,12.154-8.8,4.803-2.126,10.211-3.19,16.226-3.19,4.326,0,8.415.624,12.265,1.87,3.85,1.248,7.296,3.063,10.34,5.445,3.042,2.384,5.556,5.335,7.535,8.855,1.98,3.52,3.227,7.554,3.74,12.1h-16.72c-.294-1.98-.954-3.795-1.98-5.445Z"/></svg>